<svg xmlns="http://www.w3.org/2000/svg"
 xmlns:xlink="http://www.w3.org/1999/xlink"
  version="1.1" x="0px" y="0px" viewBox="0 0 96 120" fill="#aea696" xml:space="preserve"><style type="text/css">
	.st0{fill-rule:evenodd;clip-rule:evenodd;}
</style>
<g>
<path class="st0" d="M14.2,50H3c-1.2,0-2.3-1-2.3-2.3C0.7,47,1,46.4,1.6,46L46.3,5.8c0.9-0.8,2.2-0.7,3,0L64,18.9v-4.5   c0-1.2,1-2.2,2.3-2.2H78c1.2,0,2.3,1,2.3,2.2v19l14.2,12.7c0.9,0.8,1,2.2,0.2,3.2c-0.5,0.5-1.1,0.8-1.7,0.8H81.8v38.5   c0,1.2-1,2.2-2.2,2.2H63.7c-1.2,0-2.3-1-2.3-2.2V64.8c0-1.8-1.5-3.3-3.3-3.3H37.8c-1.8,0-3.3,1.5-3.3,3.3v23.8c0,1.2-1,2.2-2.3,2.2   H16.5c-1.2,0-2.2-1-2.2-2.2V50z"/></g></svg>